<?xml version="1.0" standalone="no"?>
<!DOCTYPE svg PUBLIC "-//W3C//DTD SVG 20010904//EN"
 "http://www.w3.org/TR/2001/REC-SVG-20010904/DTD/svg10.dtd">
<svg version="1.0" xmlns="http://www.w3.org/2000/svg"
 width="512.000000pt" height="512.000000pt" viewBox="0 0 512.000000 512.000000"
 preserveAspectRatio="xMidYMid meet">

<g transform="translate(0.000000,512.000000) scale(0.100000,-0.100000)"
fill="#000000" stroke="none">
<path d="M80 4938 c-48 -33 -72 -70 -77 -122 -8 -68 19 -130 70 -164 l40 -27
331 -3 331 -3 47 -167 c26 -92 191 -677 368 -1301 176 -624 320 -1140 320
-1146 0 -7 -26 -22 -58 -33 -328 -120 -463 -535 -269 -828 77 -118 232 -222
365 -246 l64 -12 -7 -30 c-19 -89 -23 -151 -13 -217 28 -208 154 -367 351
-446 85 -33 226 -42 317 -19 206 52 367 215 410 417 12 54 9 193 -6 267 l-6
32 317 0 317 0 -6 -27 c-14 -60 -18 -220 -7 -274 38 -178 181 -337 361 -401
72 -25 220 -35 291 -18 192 44 352 192 410 380 25 82 27 221 3 300 -55 184
-187 319 -374 383 l-65 22 -1155 5 c-1132 5 -1156 5 -1189 25 -19 11 -48 37
-65 58 -28 35 -31 46 -31 106 0 77 22 120 83 162 l36 24 1360 5 c1089 4 1369
8 1401 19 128 42 243 141 296 255 39 82 468 1796 476 1901 17 208 -115 401
-327 477 l-65 23 -1605 3 c-1075 2 -1631 -1 -1684 -8 -44 -5 -104 -21 -134
-35 -31 -14 -59 -22 -62 -18 -4 5 -42 132 -84 283 -43 151 -88 293 -100 315
-11 21 -41 53 -64 70 l-44 30 -417 3 -417 3 -34 -23z m1796 -1179 c23 -103 44
-199 48 -213 l6 -26 -229 0 -230 0 -20 68 c-60 204 -71 252 -66 275 8 29 51
73 80 80 11 3 99 4 195 3 l175 -1 41 -186z m1022 -26 l2 -213 -297 0 -298 0
-44 203 c-24 111 -46 208 -49 215 -3 10 66 12 339 10 l344 -3 3 -212z m1062
210 c0 -5 -19 -101 -42 -215 l-43 -208 -302 0 -303 0 0 215 0 215 345 0 c190
0 345 -3 345 -7z m756 -26 c39 -46 39 -67 -2 -235 l-39 -157 -213 -3 -212 -2
5 22 c9 41 85 400 85 405 0 2 79 3 176 1 l176 -3 24 -28z m-2706 -771 c0 -2
18 -83 40 -181 22 -98 40 -184 40 -191 0 -11 -39 -14 -204 -14 l-203 0 -52
183 c-28 101 -51 189 -51 195 0 9 59 12 215 12 118 0 215 -2 215 -4z m890
-191 l0 -195 -215 0 c-118 0 -215 2 -215 5 0 3 -18 86 -40 185 -22 99 -40 184
-40 190 0 6 91 10 255 10 l255 0 0 -195z m856 0 l-41 -195 -222 0 -223 0 0
195 0 195 263 0 263 0 -40 -195z m822 178 c-3 -10 -24 -98 -49 -195 l-43 -178
-199 0 c-184 0 -198 1 -193 18 3 9 22 97 42 195 l37 177 205 0 c190 0 204 -1
200 -17z m-2361 -925 c22 -101 38 -186 36 -190 -2 -5 -67 -8 -144 -8 -152 0
-196 10 -222 52 -12 18 -97 303 -97 323 0 3 87 5 193 5 l193 0 41 -182z m673
-8 l0 -191 -127 3 -127 3 -38 165 c-20 91 -37 175 -38 188 0 22 0 22 165 22
l165 0 0 -190z m740 178 c0 -7 -16 -93 -37 -190 l-37 -178 -143 0 -143 0 0
190 0 190 180 0 c137 0 180 -3 180 -12z m760 2 c0 -6 -17 -76 -37 -157 -28
-114 -42 -153 -64 -177 l-27 -31 -161 -3 c-150 -3 -161 -2 -161 15 0 22 69
343 76 355 8 12 374 10 374 -2z m-2185 -1509 c72 -33 105 -86 105 -168 0 -130
-141 -214 -260 -153 -132 68 -124 258 15 321 51 23 89 23 140 0z m1680 0 c139
-63 147 -253 15 -321 -118 -60 -260 23 -260 153 0 82 33 135 105 168 51 23 89
23 140 0z"/>
</g>
</svg>
