<?xml version="1.0" standalone="no"?>
<!DOCTYPE svg PUBLIC "-//W3C//DTD SVG 20010904//EN"
 "http://www.w3.org/TR/2001/REC-SVG-20010904/DTD/svg10.dtd">
<svg version="1.0" xmlns="http://www.w3.org/2000/svg"
 width="512.000000pt" height="512.000000pt" viewBox="0 0 512.000000 512.000000"
 preserveAspectRatio="xMidYMid meet">

<g transform="translate(0.000000,512.000000) scale(0.100000,-0.100000)"
fill="#000000" stroke="none">
<path d="M2170 5109 c-396 -21 -914 -91 -1065 -143 -207 -71 -392 -192 -576
-375 -178 -179 -308 -377 -375 -573 -78 -230 -154 -948 -154 -1458 0 -509 76
-1228 154 -1457 137 -404 545 -811 949 -949 227 -78 958 -154 1467 -154 431 1
1078 62 1365 130 332 78 713 382 918 732 111 188 138 277 187 612 111 762 103
1585 -25 2331 -33 190 -67 289 -153 437 -215 375 -614 686 -971 758 -464 93
-1176 139 -1721 109z m1242 -972 c182 -45 350 -140 474 -268 115 -120 181
-230 227 -374 47 -148 48 -190 45 -985 -4 -734 -4 -746 -26 -830 -90 -339
-353 -603 -692 -692 -85 -23 -87 -23 -880 -23 -793 0 -795 0 -880 23 -338 89
-594 344 -691 687 -23 79 -23 85 -27 830 -2 530 0 773 8 830 32 223 129 408
297 566 148 139 328 222 548 252 17 3 368 4 780 2 659 -1 758 -4 817 -18z"/>
<path d="M1830 3830 c-214 -28 -406 -173 -495 -373 -55 -125 -56 -148 -53
-937 3 -669 5 -729 22 -780 47 -144 148 -279 264 -356 31 -21 95 -52 142 -68
l85 -31 765 0 765 0 80 27 c195 67 349 228 412 433 17 56 18 110 18 805 0 805
1 792 -55 915 -77 170 -228 298 -415 352 -54 15 -130 17 -770 19 -390 1 -735
-1 -765 -6z m1621 -251 c86 -29 142 -105 142 -194 0 -151 -160 -249 -294 -180
-39 21 -68 53 -90 100 -71 153 82 327 242 274z m-720 -213 c83 -18 183 -58
263 -104 88 -52 232 -200 283 -292 238 -426 71 -954 -368 -1159 -124 -58 -201
-75 -349 -75 -142 0 -221 16 -336 69 -245 112 -420 329 -474 590 -18 86 -16
256 3 340 77 323 332 572 648 634 70 14 258 12 330 -3z"/>
<path d="M2436 3049 c-21 -5 -66 -23 -100 -39 -252 -122 -352 -431 -222 -687
92 -182 314 -295 516 -264 254 39 434 251 432 506 -2 223 -148 416 -361 479
-60 17 -200 20 -265 5z"/>
</g>
</svg>
