<?xml version="1.0" standalone="no"?>
<!DOCTYPE svg PUBLIC "-//W3C//DTD SVG 20010904//EN"
 "http://www.w3.org/TR/2001/REC-SVG-20010904/DTD/svg10.dtd">
<svg version="1.0" xmlns="http://www.w3.org/2000/svg"
 width="800.000000pt" height="600.000000pt" viewBox="0 0 800.000000 600.000000"
 preserveAspectRatio="xMidYMid meet">

<g transform="translate(0.000000,600.000000) scale(0.100000,-0.100000)"
fill="#000000" stroke="none">
<path d="M3780 5430 c-580 -61 -1094 -303 -1495 -705 -374 -374 -609 -844
-692 -1385 -24 -160 -24 -510 0 -670 83 -541 318 -1012 692 -1385 373 -374
844 -609 1385 -692 160 -24 510 -24 670 0 294 45 561 131 800 259 695 370
1155 1026 1277 1818 24 160 24 510 0 670 -83 541 -318 1011 -692 1385 -372
373 -844 610 -1375 690 -125 19 -450 27 -570 15z m499 -920 c251 -51 502 -177
671 -337 111 -104 107 -91 100 -350 l-5 -222 -42 32 c-33 26 -44 41 -52 79
-40 179 -190 382 -347 469 -213 118 -556 180 -1006 183 l-257 1 44 22 c128 66
320 123 476 143 106 13 302 4 418 -20z m-400 -630 c143 -254 261 -463 261
-466 0 -3 -43 25 -97 62 -53 37 -130 86 -171 108 l-74 41 -189 354 c-104 195
-189 356 -189 358 0 2 44 3 99 3 l98 0 262 -460z m156 -80 c172 -294 311 -537
309 -539 -2 -2 -33 18 -70 45 l-66 49 -283 493 -284 493 41 -3 41 -3 312 -535z
m-718 205 c95 -165 173 -303 173 -307 0 -5 -21 -8 -48 -8 -39 0 -49 4 -57 23
-20 46 -77 61 -245 67 l-155 5 -107 198 -106 198 46 30 c41 26 119 54 242 88
79 22 70 33 257 -294z m847 284 l61 -11 318 -501 c296 -466 316 -501 301 -518
-16 -18 -83 -53 -89 -47 -2 1 -158 247 -348 546 -282 443 -341 542 -324 542
11 0 48 -5 81 -11z m1063 -365 c203 -209 448 -590 524 -814 29 -85 31 -275 5
-398 -80 -376 -287 -653 -491 -656 -114 -2 -201 55 -226 146 -18 67 -5 270 30
468 58 335 61 373 61 871 0 340 3 459 12 459 6 0 45 -34 85 -76z m-1977 -193
c39 -7 33 -9 -45 -10 -104 -1 -244 -17 -295 -33 -62 -19 -73 -35 -67 -103 3
-33 8 -71 11 -85 5 -20 3 -19 -8 5 -8 17 -20 59 -27 94 -13 62 -13 64 10 82
56 45 290 73 421 50z m405 -145 c111 -29 270 -118 440 -247 273 -206 324 -229
494 -229 134 0 235 27 291 76 13 11 27 6 93 -32 l78 -45 -6 -62 c-4 -34 -25
-174 -48 -312 -36 -217 -42 -270 -42 -405 0 -142 2 -159 23 -197 28 -54 28
-72 -4 -136 -66 -130 -188 -263 -286 -311 -170 -83 -352 -44 -502 107 -85 85
-145 174 -291 432 -126 223 -231 385 -309 474 -140 161 -295 254 -471 285
l-70 12 -13 50 c-8 28 -11 74 -8 109 4 48 3 56 -6 40 -6 -10 -12 -58 -12 -105
l-1 -85 -85 -12 c-202 -30 -322 -146 -366 -355 -12 -56 -15 -110 -11 -233 6
-168 27 -293 82 -479 14 -49 24 -90 23 -91 -2 -2 -28 6 -58 17 -118 45 -246
222 -300 418 -48 174 -65 455 -39 665 47 386 228 631 478 647 l45 3 16 -56
c24 -80 78 -176 118 -209 134 -111 322 -13 443 230 l31 63 106 -6 c59 -3 134
-13 167 -21z m-500 -692 c98 -25 208 -89 296 -171 120 -114 207 -238 374 -538
189 -338 295 -475 427 -550 l42 -24 -59 -26 c-169 -75 -327 -108 -515 -108
-155 0 -273 18 -417 64 -234 75 -499 230 -563 329 -57 90 -120 395 -120 586 0
217 51 343 168 411 91 53 225 63 367 27z"/>
<path d="M3515 3540 c-4 -7 -3 -16 3 -22 14 -14 45 -2 40 15 -6 16 -34 21 -43
7z"/>
<path d="M2675 3530 c-8 -14 3 -30 21 -30 8 0 14 9 14 20 0 21 -24 28 -35 10z"/>
<path d="M2550 3466 c0 -8 4 -17 9 -20 11 -7 33 18 24 27 -12 12 -33 7 -33 -7z"/>
<path d="M3426 3452 c-8 -13 11 -35 23 -28 16 10 14 36 -3 36 -8 0 -17 -4 -20
-8z"/>
<path d="M3680 3400 c0 -15 5 -20 18 -18 9 2 17 10 17 18 0 8 -8 16 -17 18
-13 2 -18 -3 -18 -18z"/>
<path d="M2715 3400 c-8 -14 3 -30 21 -30 8 0 14 9 14 20 0 21 -24 28 -35 10z"/>
<path d="M2562 3363 c2 -10 10 -18 18 -18 22 0 18 29 -3 33 -14 3 -18 -1 -15
-15z"/>
<path d="M2642 3313 c2 -10 10 -18 18 -18 8 0 16 8 18 18 2 12 -3 17 -18 17
-15 0 -20 -5 -18 -17z"/>
<path d="M3450 3299 c0 -24 23 -21 28 4 2 10 -3 17 -12 17 -10 0 -16 -9 -16
-21z"/>
<path d="M3575 3301 c-8 -15 3 -31 21 -31 9 0 14 7 12 17 -4 20 -24 28 -33 14z"/>
</g>
</svg>
