<?xml version="1.0" standalone="no"?>
<!DOCTYPE svg PUBLIC "-//W3C//DTD SVG 20010904//EN"
 "http://www.w3.org/TR/2001/REC-SVG-20010904/DTD/svg10.dtd">
<svg version="1.0" xmlns="http://www.w3.org/2000/svg"
 width="627.000000pt" height="880.000000pt" viewBox="0 0 627.000000 880.000000"
 preserveAspectRatio="xMidYMid meet">

<g transform="translate(0.000000,880.000000) scale(0.100000,-0.100000)"
fill="#000000" stroke="none">
<path d="M1847 7894 l-57 -36 25 -41 c14 -23 30 -49 35 -57 7 -12 15 -11 52 9
74 41 75 42 39 105 -18 31 -33 56 -34 56 -1 0 -28 -17 -60 -36z"/>
<path d="M1645 7595 c-196 -79 -248 -331 -98 -481 20 -20 61 -48 91 -62 49
-22 64 -24 139 -19 75 4 90 9 134 38 93 64 148 176 136 280 -24 198 -220 317
-402 244z m198 -81 c43 -22 43 -22 21 -39 -38 -29 -87 -17 -110 26 l-15 29 36
0 c20 0 50 -7 68 -16z m-183 -44 c0 -38 -41 -83 -72 -78 -34 5 -32 24 8 67 44
49 64 53 64 11z m135 -82 l46 -23 -6 -50 c-4 -27 -11 -54 -15 -59 -5 -5 -31
-11 -59 -14 -49 -4 -49 -4 -70 36 -12 23 -21 47 -21 54 0 13 59 78 72 78 4 0
28 -10 53 -22z m167 -35 c4 -33 -6 -101 -17 -111 -12 -12 -45 39 -45 69 0 28
30 69 49 69 5 0 11 -12 13 -27z m-337 -106 c16 -23 20 -83 6 -91 -17 -11 -89
94 -77 113 9 14 56 0 71 -22z m225 -85 l23 -19 -42 -16 c-48 -20 -91 -22 -91
-5 0 20 43 58 66 58 12 0 32 -8 44 -18z"/>
<path d="M1666 6841 l-46 -47 32 -30 c68 -62 64 -62 113 -14 25 24 45 47 45
51 0 3 -22 24 -49 47 l-48 41 -47 -48z"/>
<path d="M3367 3574 c32 -30 48 -50 36 -45 -12 6 -25 16 -28 22 -14 22 -89 69
-112 69 -35 0 -29 -21 27 -94 65 -87 46 -85 -23 2 -30 37 -61 73 -70 81 -15
12 -17 10 -17 -18 0 -24 7 -36 35 -53 19 -13 37 -33 40 -45 3 -12 22 -35 43
-50 20 -15 56 -47 79 -70 36 -37 49 -43 83 -43 35 0 42 4 51 28 16 40 4 91
-29 126 -16 17 -40 50 -52 73 -14 25 -37 49 -56 58 -63 30 -66 16 -7 -41z"/>
<path d="M3450 3625 c0 -3 20 -42 45 -86 57 -100 67 -125 67 -172 -1 -44 13
-40 34 9 17 41 10 61 -49 137 -25 32 -50 71 -57 87 -7 17 -19 30 -26 30 -8 0
-14 -2 -14 -5z"/>
<path d="M3532 3615 c1 -10 15 -27 30 -38 23 -17 31 -19 53 -9 28 13 36 62 10
62 -8 0 -15 -6 -15 -14 0 -26 -21 -29 -52 -6 -26 19 -29 20 -26 5z"/>
<path d="M3180 3416 c0 -33 2 -36 31 -36 39 0 61 -12 129 -70 91 -78 113 -84
157 -45 15 14 21 23 12 19 -32 -11 -99 17 -201 84 -57 38 -109 71 -115 76 -10
5 -13 -3 -13 -28z"/>
<path d="M3666 3398 c-40 -57 -12 -110 145 -273 123 -128 135 -147 154 -230
l7 -30 15 30 c20 38 20 122 0 161 -9 17 -59 71 -111 119 -75 68 -97 94 -102
121 -8 44 10 68 45 59 l25 -6 -19 21 c-48 53 -132 67 -159 28z"/>
<path d="M3210 3330 c0 -5 6 -10 13 -10 8 0 19 -11 25 -24 16 -36 -8 -55 -43
-32 -22 14 -25 14 -25 1 0 -22 46 -48 74 -41 32 8 41 38 22 74 -18 36 -66 59
-66 32z"/>
<path d="M3687 3092 c95 -184 132 -240 169 -252 28 -9 39 -27 96 -148 100
-209 141 -326 142 -397 l1 -60 38 -3 37 -3 0 42 c0 31 -7 50 -23 68 -13 15
-45 80 -72 146 -26 66 -74 173 -106 237 -45 89 -59 128 -59 161 0 46 -29 101
-90 171 -29 33 -155 141 -186 159 -7 4 18 -51 53 -121z"/>
<path d="M3495 3180 c-59 -22 -81 -114 -41 -175 l19 -29 11 35 c9 28 17 35 42
37 42 4 75 -36 104 -125 45 -137 78 -173 154 -173 64 0 70 9 27 41 -32 23 -52
53 -104 161 -88 182 -152 250 -212 228z"/>
<path d="M3235 2911 c-16 -12 -36 -19 -43 -16 -10 4 -12 -28 -10 -152 l3 -156
29 -10 c22 -7 64 -3 170 18 167 33 218 30 270 -16 58 -51 86 -148 63 -217 -19
-53 -2 -67 19 -16 11 26 15 59 12 105 -4 82 -36 135 -105 176 -46 27 -56 28
-204 33 -139 4 -160 7 -179 25 -53 48 -65 117 -27 161 27 31 74 37 103 14 44
-37 35 -108 -12 -96 -30 8 -33 -13 -5 -38 30 -27 63 -17 84 26 50 102 -76 221
-168 159z"/>
<path d="M3425 2888 c28 -48 32 -109 11 -149 -12 -24 -12 -26 5 -22 30 8 59
52 59 88 0 35 -25 73 -70 105 l-29 21 24 -43z"/>
<path d="M4033 2854 c-17 -82 -7 -154 34 -243 l38 -83 27 26 c32 33 43 85 27
134 -9 28 -95 177 -115 201 -1 1 -6 -14 -11 -35z"/>
<path d="M3800 2706 c0 -17 83 -212 96 -228 19 -20 74 -24 104 -8 18 10 18 13
-11 82 -31 76 -58 111 -99 133 -28 14 -90 29 -90 21z"/>
<path d="M3465 2561 c-47 -12 -105 -42 -105 -55 0 -6 -19 -28 -42 -48 l-43
-37 33 -1 c34 0 39 -9 21 -42 -17 -31 -3 -33 32 -4 71 60 172 89 277 79 29 -3
52 -1 52 4 0 14 -61 69 -95 86 -40 20 -93 27 -130 18z"/>
<path d="M3947 2389 c-61 -14 -117 -48 -171 -103 l-50 -51 55 -3 54 -2 89 85
c49 47 83 85 75 84 -8 -1 -31 -5 -52 -10z"/>
<path d="M4015 2280 l-49 -50 52 0 c50 0 52 1 47 23 -4 12 -1 35 4 50 15 39 2
33 -54 -23z"/>
<path d="M3606 1783 c-3 -10 -7 -44 -7 -74 -1 -53 -3 -56 -25 -51 -22 4 -23 2
-18 -26 5 -23 1 -38 -15 -58 -11 -15 -21 -33 -21 -40 0 -28 -16 -12 -37 38
-20 43 -25 49 -38 38 -12 -10 -18 -10 -30 0 -16 13 -35 6 -35 -15 0 -7 -7 -15
-16 -17 -12 -2 -17 -16 -18 -53 -4 -68 8 -97 37 -93 33 5 59 98 27 98 -5 0 -6
-8 -3 -18 2 -10 -3 -25 -12 -32 -14 -12 -18 -12 -26 1 -14 23 -11 38 16 65 20
20 29 23 44 14 28 -14 34 -57 20 -136 -12 -67 -11 -68 14 -90 19 -16 46 -24
93 -30 79 -8 82 -6 114 91 23 68 48 99 77 93 37 -7 50 -82 16 -95 -20 -8 -34
17 -22 38 15 30 9 35 -11 10 -24 -28 -26 -64 -4 -82 11 -9 20 -10 32 -3 16 11
21 18 46 73 20 42 20 51 1 51 -11 0 -14 7 -9 25 5 22 3 25 -21 25 -19 0 -26 4
-22 14 9 22 -29 7 -64 -25 -17 -16 -32 -29 -33 -29 -2 0 -1 14 2 30 2 17 -1
37 -7 44 -10 11 -9 21 3 45 15 28 15 31 -2 43 -13 10 -17 28 -17 77 0 63 -17
93 -29 54z"/>
<path d="M3102 1485 c-30 -25 -31 -25 -37 -5 -9 30 -26 20 -53 -29 -18 -32
-27 -39 -37 -31 -9 8 -16 3 -25 -20 -16 -39 -9 -56 65 -154 64 -85 78 -121 64
-170 -12 -43 -68 -93 -114 -102 -41 -7 -47 -24 -7 -24 35 1 120 48 144 81 11
14 22 44 25 67 5 37 0 50 -42 118 -61 97 -70 150 -32 188 31 31 76 34 100 8
21 -23 22 -46 1 -66 -20 -20 -54 -21 -54 -1 0 23 -18 18 -26 -7 -9 -29 27 -58
72 -58 80 0 96 137 19 172 -20 9 -22 14 -15 34 13 33 -9 32 -48 -1z"/>
<path d="M2719 1373 l-24 -28 28 24 c25 23 32 31 24 31 -2 0 -14 -12 -28 -27z"/>
<path d="M3331 1312 c-43 -21 -52 -42 -17 -42 61 0 44 -54 -38 -119 -52 -41
-66 -58 -72 -87 -5 -28 -2 -42 15 -64 11 -16 21 -33 21 -38 0 -6 -40 -48 -90
-95 -86 -82 -88 -85 -63 -92 27 -6 31 -4 149 108 49 47 54 49 93 42 51 -8 104
8 130 41 11 14 32 56 46 95 35 91 85 128 104 77 8 -21 10 -19 21 19 11 37 11
45 -4 68 -31 48 -71 29 -130 -63 -24 -37 -53 -76 -66 -87 l-23 -20 18 34 c9
19 26 59 36 90 l19 56 -71 -78 c-39 -43 -73 -76 -76 -73 -7 6 24 62 63 113 37
49 44 92 18 117 -20 21 -41 20 -83 -2z"/>
<path d="M2875 1262 c5 -19 2 -22 -21 -22 -26 0 -26 -1 14 -30 50 -36 86 -89
102 -147 6 -24 13 -43 16 -43 11 0 34 72 34 107 0 38 -40 113 -60 113 -21 0
-26 2 -59 22 l-33 21 7 -21z"/>
<path d="M3880 1132 c-13 -19 -20 -21 -62 -16 -62 8 -102 -9 -122 -51 -24 -50
-21 -91 9 -111 28 -18 46 -10 67 30 9 17 8 19 -3 9 -21 -20 -39 -15 -39 11 0
23 49 76 70 76 45 0 54 -56 17 -111 -37 -57 -86 -74 -201 -72 -91 2 -103 0
-148 -24 -56 -31 -157 -125 -139 -131 6 -2 29 12 51 32 77 69 142 88 257 75
108 -13 147 -5 191 39 29 30 33 38 19 40 -14 3 -12 9 14 40 17 20 37 52 45 71
l14 33 -25 -16 c-29 -19 -30 -19 -9 29 19 47 15 81 -6 47z"/>
<path d="M3077 977 c-60 -54 -69 -77 -43 -112 13 -18 15 -18 51 9 20 16 45 42
56 60 22 35 26 96 7 96 -7 0 -39 -24 -71 -53z"/>
<path d="M2815 931 c-21 -4 -26 -9 -17 -15 7 -4 11 -14 8 -21 -3 -9 9 -15 40
-20 25 -3 75 -22 111 -41 36 -19 68 -34 70 -34 9 0 -19 41 -49 71 -31 31 -102
70 -123 68 -5 -1 -23 -4 -40 -8z"/>
<path d="M3323 866 c-45 -14 -146 -93 -137 -107 3 -5 27 -9 54 -9 46 0 50 2
99 58 69 77 67 83 -16 58z"/>
<path d="M3525 796 c-22 -7 -58 -22 -80 -34 l-40 -21 35 4 c86 10 196 28 214
35 20 7 19 9 -7 19 -36 14 -71 13 -122 -3z"/>
</g>
</svg>
