<?xml version="1.0" standalone="no"?>
<!DOCTYPE svg PUBLIC "-//W3C//DTD SVG 20010904//EN" "http://www.w3.org/TR/2001/REC-SVG-20010904/DTD/svg10.dtd">
<svg version="1.0" xmlns="http://www.w3.org/2000/svg" width="512.000000pt" height="512.000000pt" viewBox="0 0 512.000000 512.000000" preserveAspectRatio="xMidYMid meet">

  <g transform="translate(0.000000,512.000000) scale(0.100000,-0.100000)" fill="#000000" stroke="none">
    <path d="M2370 5113 c-371 -35 -653 -114 -961 -269 -245 -122 -444 -268 -655
-478 -224 -225 -366 -423 -500 -701 -158 -326 -237 -650 -251 -1020 -15 -426
73 -832 263 -1214 133 -269 271 -459 488 -677 221 -220 412 -357 681 -489 188
-92 309 -137 500 -185 500 -126 1002 -102 1490 71 149 53 407 182 540 271 365
243 667 578 866 963 181 348 271 694 286 1090 15 426 -73 832 -263 1214 -124
250 -263 447 -458 648 -216 224 -428 378 -711 518 -296 146 -572 225 -900 255
-102 9 -333 11 -415 3z m928 -1419 c77 -25 153 -70 213 -122 l35 -31 70 18
c83 22 193 65 252 98 23 14 42 20 42 14 0 -22 -59 -128 -99 -179 -23 -29 -64
-69 -92 -89 -27 -21 -45 -39 -40 -41 16 -5 211 45 264 67 l48 21 -18 -31 c-25
-44 -183 -209 -231 -242 l-39 -28 -6 -152 c-10 -249 -64 -457 -182 -692 -240
-478 -668 -799 -1178 -884 -378 -63 -722 -15 -1052 149 -180 89 -180 85 2 86
134 1 172 5 254 27 161 42 310 110 417 191 l34 24 -49 7 c-71 9 -171 42 -233
78 -74 42 -178 149 -216 222 -56 106 -60 100 64 100 146 0 166 10 82 38 -36
12 -87 35 -115 51 -70 41 -174 150 -213 223 -35 66 -72 195 -72 251 0 29 3 33
18 26 49 -21 152 -52 193 -57 l45 -6 -76 77 c-121 123 -174 253 -173 422 1 93
12 147 49 230 l25 55 127 -125 c239 -236 525 -391 837 -454 79 -16 243 -35
249 -29 2 2 -1 27 -6 56 -18 108 15 267 78 374 82 141 253 258 411 283 84 13
197 2 281 -26z" />
  </g>
</svg>